<mxfile host="app.diagrams.net" modified="2021-10-11T13:03:13.415Z" agent="5.0 (Macintosh; Intel Mac OS X 10_15_7) AppleWebKit/537.36 (KHTML, like Gecko) Chrome/94.0.4606.71 Safari/537.36" etag="9cIRLiphcMGGwrfYWubx" version="15.5.0" type="github">
  <diagram id="ltuY1lG0AHsgdq85p_Zf" name="Page-1">
    <mxGraphModel dx="1796" dy="589" grid="1" gridSize="10" guides="1" tooltips="1" connect="1" arrows="1" fold="1" page="1" pageScale="1" pageWidth="850" pageHeight="1100" math="0" shadow="0">
      <root>
        <mxCell id="0" />
        <mxCell id="1" parent="0" />
        <mxCell id="YLWLZwJmC1EKc9403-0S-3" value="" style="edgeStyle=orthogonalEdgeStyle;rounded=0;orthogonalLoop=1;jettySize=auto;html=1;" edge="1" parent="1" source="YLWLZwJmC1EKc9403-0S-1" target="YLWLZwJmC1EKc9403-0S-2">
          <mxGeometry relative="1" as="geometry" />
        </mxCell>
        <mxCell id="YLWLZwJmC1EKc9403-0S-1" value="&lt;font color=&quot;#006600&quot;&gt;Agricode&lt;br&gt;Market App&lt;/font&gt;" style="ellipse;whiteSpace=wrap;html=1;fillColor=#d5e8d4;strokeColor=#82b366;strokeWidth=3;" vertex="1" parent="1">
          <mxGeometry x="290" y="10" width="120" height="60" as="geometry" />
        </mxCell>
        <mxCell id="YLWLZwJmC1EKc9403-0S-5" value="" style="edgeStyle=orthogonalEdgeStyle;rounded=0;orthogonalLoop=1;jettySize=auto;html=1;fontColor=#006600;" edge="1" parent="1" source="YLWLZwJmC1EKc9403-0S-2" target="YLWLZwJmC1EKc9403-0S-4">
          <mxGeometry relative="1" as="geometry" />
        </mxCell>
        <mxCell id="YLWLZwJmC1EKc9403-0S-2" value="&lt;font color=&quot;#006600&quot;&gt;Splash&lt;/font&gt;" style="rounded=1;whiteSpace=wrap;html=1;strokeWidth=3;fillColor=#d5e8d4;strokeColor=#82b366;" vertex="1" parent="1">
          <mxGeometry x="290" y="90" width="120" height="60" as="geometry" />
        </mxCell>
        <mxCell id="YLWLZwJmC1EKc9403-0S-9" value="" style="edgeStyle=orthogonalEdgeStyle;rounded=0;orthogonalLoop=1;jettySize=auto;html=1;fontColor=#006600;" edge="1" parent="1" source="YLWLZwJmC1EKc9403-0S-4" target="YLWLZwJmC1EKc9403-0S-8">
          <mxGeometry relative="1" as="geometry" />
        </mxCell>
        <mxCell id="YLWLZwJmC1EKc9403-0S-4" value="&lt;font color=&quot;#006600&quot;&gt;Onboarding&lt;/font&gt;" style="rounded=1;whiteSpace=wrap;html=1;strokeWidth=3;fillColor=#d5e8d4;strokeColor=#82b366;" vertex="1" parent="1">
          <mxGeometry x="290" y="180" width="120" height="60" as="geometry" />
        </mxCell>
        <mxCell id="YLWLZwJmC1EKc9403-0S-8" value="&lt;font color=&quot;#006600&quot;&gt;Home&lt;/font&gt;" style="rounded=1;whiteSpace=wrap;html=1;strokeWidth=3;fillColor=#d5e8d4;strokeColor=#82b366;" vertex="1" parent="1">
          <mxGeometry x="290" y="280" width="120" height="60" as="geometry" />
        </mxCell>
        <mxCell id="YLWLZwJmC1EKc9403-0S-11" value="" style="endArrow=none;html=1;rounded=0;fontColor=#006600;edgeStyle=orthogonalEdgeStyle;entryX=0.45;entryY=1;entryDx=0;entryDy=0;entryPerimeter=0;" edge="1" parent="1" source="YLWLZwJmC1EKc9403-0S-14" target="YLWLZwJmC1EKc9403-0S-8">
          <mxGeometry width="50" height="50" relative="1" as="geometry">
            <mxPoint x="150" y="420" as="sourcePoint" />
            <mxPoint x="300" y="400" as="targetPoint" />
            <Array as="points">
              <mxPoint x="-10" y="380" />
              <mxPoint x="350" y="380" />
              <mxPoint x="350" y="340" />
            </Array>
          </mxGeometry>
        </mxCell>
        <mxCell id="YLWLZwJmC1EKc9403-0S-13" value="" style="endArrow=none;html=1;rounded=0;fontColor=#006600;edgeStyle=orthogonalEdgeStyle;" edge="1" parent="1">
          <mxGeometry width="50" height="50" relative="1" as="geometry">
            <mxPoint x="320" y="380" as="sourcePoint" />
            <mxPoint x="560" y="420" as="targetPoint" />
            <Array as="points">
              <mxPoint x="340" y="380" />
              <mxPoint x="460" y="380" />
            </Array>
          </mxGeometry>
        </mxCell>
        <mxCell id="YLWLZwJmC1EKc9403-0S-14" value="&lt;font color=&quot;#006600&quot;&gt;Top Nav&lt;/font&gt;" style="rounded=1;whiteSpace=wrap;html=1;strokeWidth=3;fillColor=#d5e8d4;strokeColor=#82b366;" vertex="1" parent="1">
          <mxGeometry x="-70" y="400" width="120" height="60" as="geometry" />
        </mxCell>
        <mxCell id="YLWLZwJmC1EKc9403-0S-15" value="&lt;font color=&quot;#006600&quot;&gt;Bottom Nav&lt;/font&gt;" style="rounded=1;whiteSpace=wrap;html=1;strokeWidth=3;fillColor=#d5e8d4;strokeColor=#82b366;" vertex="1" parent="1">
          <mxGeometry x="500" y="400" width="120" height="60" as="geometry" />
        </mxCell>
        <mxCell id="YLWLZwJmC1EKc9403-0S-16" value="" style="endArrow=none;html=1;rounded=0;fontColor=#006600;" edge="1" parent="1">
          <mxGeometry width="50" height="50" relative="1" as="geometry">
            <mxPoint x="560" y="480" as="sourcePoint" />
            <mxPoint x="560" y="460" as="targetPoint" />
          </mxGeometry>
        </mxCell>
        <mxCell id="YLWLZwJmC1EKc9403-0S-17" value="&lt;font color=&quot;#006600&quot;&gt;Shopping Cart&lt;/font&gt;" style="rounded=1;whiteSpace=wrap;html=1;strokeWidth=3;fillColor=#d5e8d4;strokeColor=#82b366;" vertex="1" parent="1">
          <mxGeometry x="350" y="500" width="120" height="60" as="geometry" />
        </mxCell>
        <mxCell id="YLWLZwJmC1EKc9403-0S-18" value="&lt;font color=&quot;#006600&quot;&gt;Favourites&lt;/font&gt;" style="rounded=1;whiteSpace=wrap;html=1;strokeWidth=3;fillColor=#d5e8d4;strokeColor=#82b366;" vertex="1" parent="1">
          <mxGeometry x="500" y="500" width="120" height="60" as="geometry" />
        </mxCell>
        <mxCell id="YLWLZwJmC1EKc9403-0S-19" value="&lt;font color=&quot;#006600&quot;&gt;Account&lt;/font&gt;" style="rounded=1;whiteSpace=wrap;html=1;strokeWidth=3;fillColor=#d5e8d4;strokeColor=#82b366;" vertex="1" parent="1">
          <mxGeometry x="640" y="500" width="120" height="60" as="geometry" />
        </mxCell>
        <mxCell id="YLWLZwJmC1EKc9403-0S-20" value="&lt;font color=&quot;#006600&quot;&gt;Home&lt;/font&gt;" style="rounded=1;whiteSpace=wrap;html=1;strokeWidth=3;fillColor=#d5e8d4;strokeColor=#82b366;" vertex="1" parent="1">
          <mxGeometry x="200" y="500" width="120" height="60" as="geometry" />
        </mxCell>
        <mxCell id="YLWLZwJmC1EKc9403-0S-21" style="edgeStyle=none;rounded=0;orthogonalLoop=1;jettySize=auto;html=1;entryX=0.5;entryY=0;entryDx=0;entryDy=0;fontColor=#006600;" edge="1" parent="1" source="YLWLZwJmC1EKc9403-0S-18" target="YLWLZwJmC1EKc9403-0S-18">
          <mxGeometry relative="1" as="geometry" />
        </mxCell>
        <mxCell id="YLWLZwJmC1EKc9403-0S-22" value="" style="endArrow=none;html=1;rounded=0;fontColor=#006600;" edge="1" parent="1">
          <mxGeometry width="50" height="50" relative="1" as="geometry">
            <mxPoint x="260" y="480" as="sourcePoint" />
            <mxPoint x="700" y="480" as="targetPoint" />
          </mxGeometry>
        </mxCell>
        <mxCell id="YLWLZwJmC1EKc9403-0S-25" value="" style="endArrow=none;html=1;rounded=0;fontColor=#006600;entryX=0.5;entryY=0;entryDx=0;entryDy=0;" edge="1" parent="1" target="YLWLZwJmC1EKc9403-0S-18">
          <mxGeometry width="50" height="50" relative="1" as="geometry">
            <mxPoint x="560" y="480" as="sourcePoint" />
            <mxPoint x="520" y="520" as="targetPoint" />
          </mxGeometry>
        </mxCell>
        <mxCell id="YLWLZwJmC1EKc9403-0S-26" value="" style="endArrow=none;html=1;rounded=0;fontColor=#006600;entryX=0.5;entryY=0;entryDx=0;entryDy=0;" edge="1" parent="1" target="YLWLZwJmC1EKc9403-0S-19">
          <mxGeometry width="50" height="50" relative="1" as="geometry">
            <mxPoint x="700" y="480" as="sourcePoint" />
            <mxPoint x="570" y="510" as="targetPoint" />
          </mxGeometry>
        </mxCell>
        <mxCell id="YLWLZwJmC1EKc9403-0S-27" value="" style="endArrow=none;html=1;rounded=0;fontColor=#006600;" edge="1" parent="1">
          <mxGeometry width="50" height="50" relative="1" as="geometry">
            <mxPoint x="420" y="480" as="sourcePoint" />
            <mxPoint x="420" y="500" as="targetPoint" />
          </mxGeometry>
        </mxCell>
        <mxCell id="YLWLZwJmC1EKc9403-0S-28" value="" style="endArrow=none;html=1;rounded=0;fontColor=#006600;entryX=0.5;entryY=0;entryDx=0;entryDy=0;" edge="1" parent="1" target="YLWLZwJmC1EKc9403-0S-20">
          <mxGeometry width="50" height="50" relative="1" as="geometry">
            <mxPoint x="260" y="480" as="sourcePoint" />
            <mxPoint x="520" y="430" as="targetPoint" />
          </mxGeometry>
        </mxCell>
        <mxCell id="YLWLZwJmC1EKc9403-0S-29" value="&lt;font color=&quot;#006600&quot;&gt;Help&lt;/font&gt;" style="rounded=1;whiteSpace=wrap;html=1;strokeWidth=3;fillColor=#d5e8d4;strokeColor=#82b366;" vertex="1" parent="1">
          <mxGeometry x="840" y="629" width="120" height="60" as="geometry" />
        </mxCell>
        <mxCell id="YLWLZwJmC1EKc9403-0S-30" value="&lt;font color=&quot;#006600&quot;&gt;Log out&lt;/font&gt;" style="rounded=1;whiteSpace=wrap;html=1;strokeWidth=3;fillColor=#d5e8d4;strokeColor=#82b366;" vertex="1" parent="1">
          <mxGeometry x="1000" y="629" width="120" height="60" as="geometry" />
        </mxCell>
        <mxCell id="YLWLZwJmC1EKc9403-0S-31" value="&lt;font color=&quot;#006600&quot;&gt;Refer a Friend&lt;/font&gt;" style="rounded=1;whiteSpace=wrap;html=1;strokeWidth=3;fillColor=#d5e8d4;strokeColor=#82b366;" vertex="1" parent="1">
          <mxGeometry x="680" y="629" width="120" height="60" as="geometry" />
        </mxCell>
        <mxCell id="YLWLZwJmC1EKc9403-0S-32" value="&lt;font color=&quot;#006600&quot;&gt;Rate Us&lt;/font&gt;" style="rounded=1;whiteSpace=wrap;html=1;strokeWidth=3;fillColor=#d5e8d4;strokeColor=#82b366;" vertex="1" parent="1">
          <mxGeometry x="520" y="629" width="120" height="60" as="geometry" />
        </mxCell>
        <mxCell id="YLWLZwJmC1EKc9403-0S-33" value="&lt;font color=&quot;#006600&quot;&gt;My Cart&lt;/font&gt;" style="rounded=1;whiteSpace=wrap;html=1;strokeWidth=3;fillColor=#d5e8d4;strokeColor=#82b366;" vertex="1" parent="1">
          <mxGeometry x="365" y="629" width="120" height="60" as="geometry" />
        </mxCell>
        <mxCell id="YLWLZwJmC1EKc9403-0S-34" value="&lt;font color=&quot;#006600&quot;&gt;Settings&lt;/font&gt;" style="rounded=1;whiteSpace=wrap;html=1;strokeWidth=3;fillColor=#d5e8d4;strokeColor=#82b366;" vertex="1" parent="1">
          <mxGeometry x="200" y="629" width="120" height="60" as="geometry" />
        </mxCell>
        <mxCell id="YLWLZwJmC1EKc9403-0S-35" value="&lt;font color=&quot;#006600&quot;&gt;Favourites&lt;/font&gt;" style="rounded=1;whiteSpace=wrap;html=1;strokeWidth=3;fillColor=#d5e8d4;strokeColor=#82b366;" vertex="1" parent="1">
          <mxGeometry x="60" y="629" width="120" height="60" as="geometry" />
        </mxCell>
        <mxCell id="YLWLZwJmC1EKc9403-0S-36" value="&lt;font color=&quot;#006600&quot;&gt;My Orders&lt;/font&gt;" style="rounded=1;whiteSpace=wrap;html=1;strokeWidth=3;fillColor=#d5e8d4;strokeColor=#82b366;" vertex="1" parent="1">
          <mxGeometry x="-90" y="629" width="120" height="60" as="geometry" />
        </mxCell>
        <mxCell id="YLWLZwJmC1EKc9403-0S-38" value="" style="endArrow=none;html=1;rounded=0;fontColor=#006600;" edge="1" parent="1">
          <mxGeometry width="50" height="50" relative="1" as="geometry">
            <mxPoint x="-40" y="609" as="sourcePoint" />
            <mxPoint x="1060" y="609" as="targetPoint" />
          </mxGeometry>
        </mxCell>
        <mxCell id="YLWLZwJmC1EKc9403-0S-39" value="" style="endArrow=none;html=1;rounded=0;fontColor=#006600;entryX=0.5;entryY=0;entryDx=0;entryDy=0;" edge="1" parent="1" target="YLWLZwJmC1EKc9403-0S-30">
          <mxGeometry width="50" height="50" relative="1" as="geometry">
            <mxPoint x="1060" y="609" as="sourcePoint" />
            <mxPoint x="850" y="409" as="targetPoint" />
          </mxGeometry>
        </mxCell>
        <mxCell id="YLWLZwJmC1EKc9403-0S-40" value="" style="endArrow=none;html=1;rounded=0;fontColor=#006600;entryX=0.5;entryY=1;entryDx=0;entryDy=0;" edge="1" parent="1" target="YLWLZwJmC1EKc9403-0S-19">
          <mxGeometry width="50" height="50" relative="1" as="geometry">
            <mxPoint x="700" y="610" as="sourcePoint" />
            <mxPoint x="600" y="310" as="targetPoint" />
          </mxGeometry>
        </mxCell>
        <mxCell id="YLWLZwJmC1EKc9403-0S-41" value="" style="endArrow=none;html=1;rounded=0;fontColor=#006600;entryX=0.5;entryY=0;entryDx=0;entryDy=0;" edge="1" parent="1" target="YLWLZwJmC1EKc9403-0S-32">
          <mxGeometry width="50" height="50" relative="1" as="geometry">
            <mxPoint x="580" y="609" as="sourcePoint" />
            <mxPoint x="600" y="329" as="targetPoint" />
            <Array as="points" />
          </mxGeometry>
        </mxCell>
        <mxCell id="YLWLZwJmC1EKc9403-0S-42" value="" style="endArrow=none;html=1;rounded=0;fontColor=#006600;entryX=0.458;entryY=0;entryDx=0;entryDy=0;entryPerimeter=0;" edge="1" parent="1" target="YLWLZwJmC1EKc9403-0S-33">
          <mxGeometry width="50" height="50" relative="1" as="geometry">
            <mxPoint x="420" y="609" as="sourcePoint" />
            <mxPoint x="610" y="519" as="targetPoint" />
          </mxGeometry>
        </mxCell>
        <mxCell id="YLWLZwJmC1EKc9403-0S-43" value="" style="endArrow=none;html=1;rounded=0;fontColor=#006600;exitX=0.5;exitY=0;exitDx=0;exitDy=0;" edge="1" parent="1" source="YLWLZwJmC1EKc9403-0S-34">
          <mxGeometry width="50" height="50" relative="1" as="geometry">
            <mxPoint x="320" y="569" as="sourcePoint" />
            <mxPoint x="260" y="609" as="targetPoint" />
          </mxGeometry>
        </mxCell>
        <mxCell id="YLWLZwJmC1EKc9403-0S-44" value="" style="endArrow=none;html=1;rounded=0;fontColor=#006600;exitX=0.5;exitY=0;exitDx=0;exitDy=0;" edge="1" parent="1" source="YLWLZwJmC1EKc9403-0S-35">
          <mxGeometry width="50" height="50" relative="1" as="geometry">
            <mxPoint x="130" y="569" as="sourcePoint" />
            <mxPoint x="120" y="609" as="targetPoint" />
          </mxGeometry>
        </mxCell>
        <mxCell id="YLWLZwJmC1EKc9403-0S-45" value="" style="endArrow=none;html=1;rounded=0;fontColor=#006600;" edge="1" parent="1">
          <mxGeometry width="50" height="50" relative="1" as="geometry">
            <mxPoint x="-39" y="629" as="sourcePoint" />
            <mxPoint x="-39" y="609" as="targetPoint" />
          </mxGeometry>
        </mxCell>
        <mxCell id="YLWLZwJmC1EKc9403-0S-46" value="" style="endArrow=none;html=1;rounded=0;fontColor=#006600;exitX=0.5;exitY=0;exitDx=0;exitDy=0;" edge="1" parent="1" source="YLWLZwJmC1EKc9403-0S-31">
          <mxGeometry width="50" height="50" relative="1" as="geometry">
            <mxPoint x="740" y="619" as="sourcePoint" />
            <mxPoint x="740" y="609" as="targetPoint" />
          </mxGeometry>
        </mxCell>
        <mxCell id="YLWLZwJmC1EKc9403-0S-47" value="" style="endArrow=none;html=1;rounded=0;fontColor=#006600;entryX=0.5;entryY=0;entryDx=0;entryDy=0;" edge="1" parent="1" target="YLWLZwJmC1EKc9403-0S-29">
          <mxGeometry width="50" height="50" relative="1" as="geometry">
            <mxPoint x="900" y="609" as="sourcePoint" />
            <mxPoint x="740" y="579" as="targetPoint" />
          </mxGeometry>
        </mxCell>
        <mxCell id="YLWLZwJmC1EKc9403-0S-48" value="" style="endArrow=none;html=1;rounded=0;fontColor=#006600;exitX=0.408;exitY=-0.036;exitDx=0;exitDy=0;exitPerimeter=0;" edge="1" parent="1" source="YLWLZwJmC1EKc9403-0S-49">
          <mxGeometry width="50" height="50" relative="1" as="geometry">
            <mxPoint x="-250" y="610" as="sourcePoint" />
            <mxPoint x="420" y="560" as="targetPoint" />
            <Array as="points">
              <mxPoint x="-250" y="580" />
              <mxPoint x="420" y="580" />
            </Array>
          </mxGeometry>
        </mxCell>
        <mxCell id="YLWLZwJmC1EKc9403-0S-49" value="&lt;font color=&quot;#006600&quot;&gt;Orders Placed&lt;/font&gt;" style="rounded=1;whiteSpace=wrap;html=1;strokeWidth=3;fillColor=#d5e8d4;strokeColor=#82b366;" vertex="1" parent="1">
          <mxGeometry x="-300" y="629" width="120" height="60" as="geometry" />
        </mxCell>
        <mxCell id="YLWLZwJmC1EKc9403-0S-50" value="&lt;font color=&quot;#006600&quot;&gt;Search&lt;/font&gt;" style="rounded=1;whiteSpace=wrap;html=1;strokeWidth=3;fillColor=#d5e8d4;strokeColor=#82b366;" vertex="1" parent="1">
          <mxGeometry x="20" y="500" width="120" height="60" as="geometry" />
        </mxCell>
        <mxCell id="YLWLZwJmC1EKc9403-0S-51" value="&lt;font color=&quot;#006600&quot;&gt;Notification&lt;/font&gt;" style="rounded=1;whiteSpace=wrap;html=1;strokeWidth=3;fillColor=#d5e8d4;strokeColor=#82b366;" vertex="1" parent="1">
          <mxGeometry x="-150" y="500" width="120" height="60" as="geometry" />
        </mxCell>
        <mxCell id="YLWLZwJmC1EKc9403-0S-52" value="" style="endArrow=none;html=1;rounded=0;fontColor=#006600;entryX=0.508;entryY=-0.033;entryDx=0;entryDy=0;entryPerimeter=0;" edge="1" parent="1" target="YLWLZwJmC1EKc9403-0S-50">
          <mxGeometry width="50" height="50" relative="1" as="geometry">
            <mxPoint x="-100" y="498" as="sourcePoint" />
            <mxPoint x="80" y="480" as="targetPoint" />
            <Array as="points">
              <mxPoint x="-100" y="480" />
              <mxPoint x="81" y="480" />
            </Array>
          </mxGeometry>
        </mxCell>
        <mxCell id="YLWLZwJmC1EKc9403-0S-53" value="" style="endArrow=none;html=1;rounded=0;fontColor=#006600;entryX=0.503;entryY=1.031;entryDx=0;entryDy=0;entryPerimeter=0;" edge="1" parent="1" target="YLWLZwJmC1EKc9403-0S-14">
          <mxGeometry width="50" height="50" relative="1" as="geometry">
            <mxPoint x="-10" y="480" as="sourcePoint" />
            <mxPoint x="10" y="450" as="targetPoint" />
          </mxGeometry>
        </mxCell>
        <mxCell id="YLWLZwJmC1EKc9403-0S-54" value="&lt;font color=&quot;#006600&quot;&gt;Notifications&lt;/font&gt;" style="rounded=1;whiteSpace=wrap;html=1;strokeWidth=3;fillColor=#d5e8d4;strokeColor=#82b366;" vertex="1" parent="1">
          <mxGeometry x="200" y="740" width="120" height="60" as="geometry" />
        </mxCell>
        <mxCell id="YLWLZwJmC1EKc9403-0S-55" value="&lt;font color=&quot;#006600&quot;&gt;Address&lt;/font&gt;" style="rounded=1;whiteSpace=wrap;html=1;strokeWidth=3;fillColor=#d5e8d4;strokeColor=#82b366;" vertex="1" parent="1">
          <mxGeometry x="400" y="740" width="120" height="60" as="geometry" />
        </mxCell>
        <mxCell id="YLWLZwJmC1EKc9403-0S-57" value="&lt;font color=&quot;#006600&quot;&gt;Account&lt;/font&gt;" style="rounded=1;whiteSpace=wrap;html=1;strokeWidth=3;fillColor=#d5e8d4;strokeColor=#82b366;" vertex="1" parent="1">
          <mxGeometry x="20" y="740" width="120" height="60" as="geometry" />
        </mxCell>
        <mxCell id="YLWLZwJmC1EKc9403-0S-58" value="&lt;font color=&quot;#006600&quot;&gt;Deactivate Account&lt;/font&gt;" style="rounded=1;whiteSpace=wrap;html=1;strokeWidth=3;fillColor=#d5e8d4;strokeColor=#82b366;" vertex="1" parent="1">
          <mxGeometry x="80" y="850" width="120" height="60" as="geometry" />
        </mxCell>
        <mxCell id="YLWLZwJmC1EKc9403-0S-59" value="&lt;font color=&quot;#006600&quot;&gt;Security&lt;/font&gt;" style="rounded=1;whiteSpace=wrap;html=1;strokeWidth=3;fillColor=#d5e8d4;strokeColor=#82b366;" vertex="1" parent="1">
          <mxGeometry x="-90" y="850" width="120" height="60" as="geometry" />
        </mxCell>
        <mxCell id="YLWLZwJmC1EKc9403-0S-61" value="&lt;font color=&quot;#006600&quot;&gt;Promotions&lt;/font&gt;" style="rounded=1;whiteSpace=wrap;html=1;strokeWidth=3;fillColor=#d5e8d4;strokeColor=#82b366;" vertex="1" parent="1">
          <mxGeometry x="410" y="850" width="120" height="60" as="geometry" />
        </mxCell>
        <mxCell id="YLWLZwJmC1EKc9403-0S-62" value="&lt;font color=&quot;#006600&quot;&gt;My Account&lt;/font&gt;" style="rounded=1;whiteSpace=wrap;html=1;strokeWidth=3;fillColor=#d5e8d4;strokeColor=#82b366;" vertex="1" parent="1">
          <mxGeometry x="240" y="850" width="120" height="60" as="geometry" />
        </mxCell>
        <mxCell id="YLWLZwJmC1EKc9403-0S-63" value="" style="endArrow=none;html=1;rounded=0;fontColor=#006600;exitX=0.5;exitY=0;exitDx=0;exitDy=0;" edge="1" parent="1" source="YLWLZwJmC1EKc9403-0S-57">
          <mxGeometry width="50" height="50" relative="1" as="geometry">
            <mxPoint x="180" y="700" as="sourcePoint" />
            <mxPoint x="260" y="690" as="targetPoint" />
            <Array as="points">
              <mxPoint x="80" y="720" />
              <mxPoint x="260" y="720" />
            </Array>
          </mxGeometry>
        </mxCell>
        <mxCell id="YLWLZwJmC1EKc9403-0S-64" value="" style="endArrow=none;html=1;rounded=0;fontColor=#006600;entryX=0.433;entryY=-0.033;entryDx=0;entryDy=0;entryPerimeter=0;" edge="1" parent="1" target="YLWLZwJmC1EKc9403-0S-55">
          <mxGeometry width="50" height="50" relative="1" as="geometry">
            <mxPoint x="260" y="720" as="sourcePoint" />
            <mxPoint x="470" y="720" as="targetPoint" />
            <Array as="points">
              <mxPoint x="452" y="720" />
            </Array>
          </mxGeometry>
        </mxCell>
        <mxCell id="YLWLZwJmC1EKc9403-0S-65" value="" style="endArrow=none;html=1;rounded=0;fontColor=#006600;entryX=0.5;entryY=1;entryDx=0;entryDy=0;" edge="1" parent="1" target="YLWLZwJmC1EKc9403-0S-57">
          <mxGeometry width="50" height="50" relative="1" as="geometry">
            <mxPoint x="80" y="830" as="sourcePoint" />
            <mxPoint x="230" y="650" as="targetPoint" />
          </mxGeometry>
        </mxCell>
        <mxCell id="YLWLZwJmC1EKc9403-0S-66" value="" style="endArrow=none;html=1;rounded=0;fontColor=#006600;entryX=0.5;entryY=0;entryDx=0;entryDy=0;exitX=0.617;exitY=-0.05;exitDx=0;exitDy=0;exitPerimeter=0;" edge="1" parent="1" source="YLWLZwJmC1EKc9403-0S-58" target="YLWLZwJmC1EKc9403-0S-59">
          <mxGeometry width="50" height="50" relative="1" as="geometry">
            <mxPoint x="150" y="830" as="sourcePoint" />
            <mxPoint x="-50" y="840" as="targetPoint" />
            <Array as="points">
              <mxPoint x="154" y="830" />
              <mxPoint x="-30" y="830" />
            </Array>
          </mxGeometry>
        </mxCell>
        <mxCell id="YLWLZwJmC1EKc9403-0S-67" value="" style="endArrow=none;html=1;rounded=0;fontColor=#006600;exitX=0.333;exitY=0;exitDx=0;exitDy=0;exitPerimeter=0;entryX=0.5;entryY=0;entryDx=0;entryDy=0;entryPerimeter=0;" edge="1" parent="1" source="YLWLZwJmC1EKc9403-0S-62" target="YLWLZwJmC1EKc9403-0S-61">
          <mxGeometry width="50" height="50" relative="1" as="geometry">
            <mxPoint x="320" y="730" as="sourcePoint" />
            <mxPoint x="370" y="680" as="targetPoint" />
            <Array as="points">
              <mxPoint x="280" y="830" />
              <mxPoint x="470" y="830" />
            </Array>
          </mxGeometry>
        </mxCell>
        <mxCell id="YLWLZwJmC1EKc9403-0S-68" value="" style="endArrow=none;html=1;rounded=0;fontColor=#006600;exitX=0.5;exitY=1;exitDx=0;exitDy=0;" edge="1" parent="1" source="YLWLZwJmC1EKc9403-0S-54">
          <mxGeometry width="50" height="50" relative="1" as="geometry">
            <mxPoint x="320" y="730" as="sourcePoint" />
            <mxPoint x="370" y="830" as="targetPoint" />
            <Array as="points">
              <mxPoint x="260" y="820" />
              <mxPoint x="370" y="820" />
            </Array>
          </mxGeometry>
        </mxCell>
        <mxCell id="YLWLZwJmC1EKc9403-0S-69" value="&lt;font color=&quot;#006600&quot;&gt;Make Payment&lt;/font&gt;" style="rounded=1;whiteSpace=wrap;html=1;strokeWidth=3;fillColor=#d5e8d4;strokeColor=#82b366;" vertex="1" parent="1">
          <mxGeometry x="-300" y="940" width="120" height="60" as="geometry" />
        </mxCell>
        <mxCell id="YLWLZwJmC1EKc9403-0S-70" value="" style="endArrow=none;html=1;rounded=0;fontColor=#006600;entryX=1;entryY=0.5;entryDx=0;entryDy=0;" edge="1" parent="1" source="YLWLZwJmC1EKc9403-0S-33" target="YLWLZwJmC1EKc9403-0S-69">
          <mxGeometry width="50" height="50" relative="1" as="geometry">
            <mxPoint x="430" y="710" as="sourcePoint" />
            <mxPoint x="290" y="660" as="targetPoint" />
            <Array as="points">
              <mxPoint x="425" y="710" />
              <mxPoint x="600" y="710" />
              <mxPoint x="600" y="970" />
            </Array>
          </mxGeometry>
        </mxCell>
        <mxCell id="YLWLZwJmC1EKc9403-0S-71" value="" style="endArrow=none;html=1;rounded=0;fontColor=#006600;entryX=0.426;entryY=-0.04;entryDx=0;entryDy=0;entryPerimeter=0;" edge="1" parent="1" target="YLWLZwJmC1EKc9403-0S-69">
          <mxGeometry width="50" height="50" relative="1" as="geometry">
            <mxPoint x="-250" y="690" as="sourcePoint" />
            <mxPoint x="120" y="700" as="targetPoint" />
          </mxGeometry>
        </mxCell>
      </root>
    </mxGraphModel>
  </diagram>
</mxfile>
